<mxfile host="Electron" modified="2025-03-11T16:37:10.430Z" agent="Mozilla/5.0 (Windows NT 10.0; Win64; x64) AppleWebKit/537.36 (KHTML, like Gecko) draw.io/24.4.0 Chrome/120.0.6099.109 Electron/28.1.0 Safari/537.36" etag="0EdD1hGBjCn2SQRCLEdo" version="24.4.0" type="device">
  <diagram name="Страница — 1" id="v9_xJwbACpkLAxlevZKL">
    <mxGraphModel dx="913" dy="547" grid="1" gridSize="10" guides="1" tooltips="1" connect="1" arrows="1" fold="1" page="1" pageScale="1" pageWidth="827" pageHeight="1169" math="0" shadow="0">
      <root>
        <mxCell id="0" />
        <mxCell id="1" parent="0" />
        <mxCell id="oKFfpTq6lOxdsjf8TjSV-1" value="mongoDB" style="shape=cylinder3;whiteSpace=wrap;html=1;boundedLbl=1;backgroundOutline=1;size=15;" vertex="1" parent="1">
          <mxGeometry x="384" y="30" width="126" height="80" as="geometry" />
        </mxCell>
        <mxCell id="oKFfpTq6lOxdsjf8TjSV-2" value="" style="endArrow=classic;html=1;rounded=0;" edge="1" parent="1">
          <mxGeometry width="50" height="50" relative="1" as="geometry">
            <mxPoint x="446.5" y="110" as="sourcePoint" />
            <mxPoint x="447" y="160" as="targetPoint" />
          </mxGeometry>
        </mxCell>
        <mxCell id="oKFfpTq6lOxdsjf8TjSV-6" value="EF CORE" style="swimlane;fontStyle=0;childLayout=stackLayout;horizontal=1;startSize=26;fillColor=none;horizontalStack=0;resizeParent=1;resizeParentMax=0;resizeLast=0;collapsible=1;marginBottom=0;whiteSpace=wrap;html=1;" vertex="1" parent="1">
          <mxGeometry x="325.5" y="160" width="243" height="156" as="geometry" />
        </mxCell>
        <mxCell id="oKFfpTq6lOxdsjf8TjSV-7" value="AttachmentDbContext" style="text;strokeColor=none;fillColor=none;align=left;verticalAlign=top;spacingLeft=4;spacingRight=4;overflow=hidden;rotatable=0;points=[[0,0.5],[1,0.5]];portConstraint=eastwest;whiteSpace=wrap;html=1;" vertex="1" parent="oKFfpTq6lOxdsjf8TjSV-6">
          <mxGeometry y="26" width="243" height="26" as="geometry" />
        </mxCell>
        <mxCell id="oKFfpTq6lOxdsjf8TjSV-8" value="BoardDbContext" style="text;strokeColor=none;fillColor=none;align=left;verticalAlign=top;spacingLeft=4;spacingRight=4;overflow=hidden;rotatable=0;points=[[0,0.5],[1,0.5]];portConstraint=eastwest;whiteSpace=wrap;html=1;" vertex="1" parent="oKFfpTq6lOxdsjf8TjSV-6">
          <mxGeometry y="52" width="243" height="26" as="geometry" />
        </mxCell>
        <mxCell id="oKFfpTq6lOxdsjf8TjSV-9" value="ColumnDbContext" style="text;strokeColor=none;fillColor=none;align=left;verticalAlign=top;spacingLeft=4;spacingRight=4;overflow=hidden;rotatable=0;points=[[0,0.5],[1,0.5]];portConstraint=eastwest;whiteSpace=wrap;html=1;" vertex="1" parent="oKFfpTq6lOxdsjf8TjSV-6">
          <mxGeometry y="78" width="243" height="26" as="geometry" />
        </mxCell>
        <mxCell id="oKFfpTq6lOxdsjf8TjSV-10" value="TicketDbContext" style="text;strokeColor=none;fillColor=none;align=left;verticalAlign=top;spacingLeft=4;spacingRight=4;overflow=hidden;rotatable=0;points=[[0,0.5],[1,0.5]];portConstraint=eastwest;whiteSpace=wrap;html=1;" vertex="1" parent="oKFfpTq6lOxdsjf8TjSV-6">
          <mxGeometry y="104" width="243" height="26" as="geometry" />
        </mxCell>
        <mxCell id="oKFfpTq6lOxdsjf8TjSV-11" value="UserDbContext" style="text;strokeColor=none;fillColor=none;align=left;verticalAlign=top;spacingLeft=4;spacingRight=4;overflow=hidden;rotatable=0;points=[[0,0.5],[1,0.5]];portConstraint=eastwest;whiteSpace=wrap;html=1;" vertex="1" parent="oKFfpTq6lOxdsjf8TjSV-6">
          <mxGeometry y="130" width="243" height="26" as="geometry" />
        </mxCell>
        <mxCell id="oKFfpTq6lOxdsjf8TjSV-12" value="" style="html=1;verticalAlign=bottom;endArrow=block;curved=0;rounded=0;entryX=1;entryY=0.5;entryDx=0;entryDy=0;" edge="1" parent="1" target="oKFfpTq6lOxdsjf8TjSV-14">
          <mxGeometry width="80" relative="1" as="geometry">
            <mxPoint x="325.5" y="200" as="sourcePoint" />
            <mxPoint x="245.5" y="200" as="targetPoint" />
          </mxGeometry>
        </mxCell>
        <mxCell id="oKFfpTq6lOxdsjf8TjSV-13" value="IAttachmentRepository" style="swimlane;fontStyle=0;childLayout=stackLayout;horizontal=1;startSize=26;fillColor=none;horizontalStack=0;resizeParent=1;resizeParentMax=0;resizeLast=0;collapsible=1;marginBottom=0;whiteSpace=wrap;html=1;" vertex="1" parent="1">
          <mxGeometry y="160" width="290" height="156" as="geometry" />
        </mxCell>
        <mxCell id="oKFfpTq6lOxdsjf8TjSV-14" value="Task&amp;lt;IEnumerable&amp;lt;Attachment&amp;gt;&amp;gt; GetAllAsync();" style="text;strokeColor=none;fillColor=none;align=left;verticalAlign=top;spacingLeft=4;spacingRight=4;overflow=hidden;rotatable=0;points=[[0,0.5],[1,0.5]];portConstraint=eastwest;whiteSpace=wrap;html=1;" vertex="1" parent="oKFfpTq6lOxdsjf8TjSV-13">
          <mxGeometry y="26" width="290" height="26" as="geometry" />
        </mxCell>
        <mxCell id="oKFfpTq6lOxdsjf8TjSV-15" value="Task&amp;lt;Attachment&amp;gt; GetByIdAsync(string id);" style="text;strokeColor=none;fillColor=none;align=left;verticalAlign=top;spacingLeft=4;spacingRight=4;overflow=hidden;rotatable=0;points=[[0,0.5],[1,0.5]];portConstraint=eastwest;whiteSpace=wrap;html=1;" vertex="1" parent="oKFfpTq6lOxdsjf8TjSV-13">
          <mxGeometry y="52" width="290" height="26" as="geometry" />
        </mxCell>
        <mxCell id="oKFfpTq6lOxdsjf8TjSV-16" value="Task CreateAsync(Attachment attachment);" style="text;strokeColor=none;fillColor=none;align=left;verticalAlign=top;spacingLeft=4;spacingRight=4;overflow=hidden;rotatable=0;points=[[0,0.5],[1,0.5]];portConstraint=eastwest;whiteSpace=wrap;html=1;" vertex="1" parent="oKFfpTq6lOxdsjf8TjSV-13">
          <mxGeometry y="78" width="290" height="26" as="geometry" />
        </mxCell>
        <mxCell id="oKFfpTq6lOxdsjf8TjSV-17" value="Task UpdateAsync(Attachment attachment);" style="text;strokeColor=none;fillColor=none;align=left;verticalAlign=top;spacingLeft=4;spacingRight=4;overflow=hidden;rotatable=0;points=[[0,0.5],[1,0.5]];portConstraint=eastwest;whiteSpace=wrap;html=1;" vertex="1" parent="oKFfpTq6lOxdsjf8TjSV-13">
          <mxGeometry y="104" width="290" height="26" as="geometry" />
        </mxCell>
        <mxCell id="oKFfpTq6lOxdsjf8TjSV-18" value="Task DeleteAsync(string id);" style="text;strokeColor=none;fillColor=none;align=left;verticalAlign=top;spacingLeft=4;spacingRight=4;overflow=hidden;rotatable=0;points=[[0,0.5],[1,0.5]];portConstraint=eastwest;whiteSpace=wrap;html=1;" vertex="1" parent="oKFfpTq6lOxdsjf8TjSV-13">
          <mxGeometry y="130" width="290" height="26" as="geometry" />
        </mxCell>
        <mxCell id="oKFfpTq6lOxdsjf8TjSV-19" value="" style="html=1;verticalAlign=bottom;endArrow=block;curved=0;rounded=0;" edge="1" parent="1">
          <mxGeometry width="80" relative="1" as="geometry">
            <mxPoint x="568.5" y="220" as="sourcePoint" />
            <mxPoint x="610" y="220" as="targetPoint" />
          </mxGeometry>
        </mxCell>
        <mxCell id="oKFfpTq6lOxdsjf8TjSV-20" value="IBoardRepository" style="swimlane;fontStyle=0;childLayout=stackLayout;horizontal=1;startSize=26;fillColor=none;horizontalStack=0;resizeParent=1;resizeParentMax=0;resizeLast=0;collapsible=1;marginBottom=0;whiteSpace=wrap;html=1;" vertex="1" parent="1">
          <mxGeometry x="610" y="160" width="270" height="156" as="geometry" />
        </mxCell>
        <mxCell id="oKFfpTq6lOxdsjf8TjSV-21" value="Task&amp;lt;IEnumerable&amp;lt;Board&amp;gt;&amp;gt; GetAllAsync();" style="text;strokeColor=none;fillColor=none;align=left;verticalAlign=top;spacingLeft=4;spacingRight=4;overflow=hidden;rotatable=0;points=[[0,0.5],[1,0.5]];portConstraint=eastwest;whiteSpace=wrap;html=1;" vertex="1" parent="oKFfpTq6lOxdsjf8TjSV-20">
          <mxGeometry y="26" width="270" height="26" as="geometry" />
        </mxCell>
        <mxCell id="oKFfpTq6lOxdsjf8TjSV-22" value="Task&amp;lt;Board&amp;gt; GetByIdAsync(string id);" style="text;strokeColor=none;fillColor=none;align=left;verticalAlign=top;spacingLeft=4;spacingRight=4;overflow=hidden;rotatable=0;points=[[0,0.5],[1,0.5]];portConstraint=eastwest;whiteSpace=wrap;html=1;" vertex="1" parent="oKFfpTq6lOxdsjf8TjSV-20">
          <mxGeometry y="52" width="270" height="26" as="geometry" />
        </mxCell>
        <mxCell id="oKFfpTq6lOxdsjf8TjSV-23" value="Task CreateAsync(Board board);" style="text;strokeColor=none;fillColor=none;align=left;verticalAlign=top;spacingLeft=4;spacingRight=4;overflow=hidden;rotatable=0;points=[[0,0.5],[1,0.5]];portConstraint=eastwest;whiteSpace=wrap;html=1;" vertex="1" parent="oKFfpTq6lOxdsjf8TjSV-20">
          <mxGeometry y="78" width="270" height="26" as="geometry" />
        </mxCell>
        <mxCell id="oKFfpTq6lOxdsjf8TjSV-24" value="Task UpdateAsync(Board board);" style="text;strokeColor=none;fillColor=none;align=left;verticalAlign=top;spacingLeft=4;spacingRight=4;overflow=hidden;rotatable=0;points=[[0,0.5],[1,0.5]];portConstraint=eastwest;whiteSpace=wrap;html=1;" vertex="1" parent="oKFfpTq6lOxdsjf8TjSV-20">
          <mxGeometry y="104" width="270" height="26" as="geometry" />
        </mxCell>
        <mxCell id="oKFfpTq6lOxdsjf8TjSV-25" value="Task DeleteAsync(string id);" style="text;strokeColor=none;fillColor=none;align=left;verticalAlign=top;spacingLeft=4;spacingRight=4;overflow=hidden;rotatable=0;points=[[0,0.5],[1,0.5]];portConstraint=eastwest;whiteSpace=wrap;html=1;" vertex="1" parent="oKFfpTq6lOxdsjf8TjSV-20">
          <mxGeometry y="130" width="270" height="26" as="geometry" />
        </mxCell>
        <mxCell id="oKFfpTq6lOxdsjf8TjSV-26" value="" style="html=1;verticalAlign=bottom;endArrow=block;curved=0;rounded=0;exitX=0;exitY=0.5;exitDx=0;exitDy=0;exitPerimeter=0;" edge="1" parent="1" source="oKFfpTq6lOxdsjf8TjSV-30">
          <mxGeometry width="80" relative="1" as="geometry">
            <mxPoint x="310" y="250" as="sourcePoint" />
            <mxPoint x="310" y="350" as="targetPoint" />
          </mxGeometry>
        </mxCell>
        <mxCell id="oKFfpTq6lOxdsjf8TjSV-30" value="" style="line;strokeWidth=1;fillColor=none;align=left;verticalAlign=middle;spacingTop=-1;spacingLeft=3;spacingRight=3;rotatable=0;labelPosition=right;points=[];portConstraint=eastwest;strokeColor=inherit;" vertex="1" parent="1">
          <mxGeometry x="310" y="240" width="15.5" height="8" as="geometry" />
        </mxCell>
        <mxCell id="oKFfpTq6lOxdsjf8TjSV-31" value="IColumnRepository" style="swimlane;fontStyle=0;childLayout=stackLayout;horizontal=1;startSize=26;fillColor=none;horizontalStack=0;resizeParent=1;resizeParentMax=0;resizeLast=0;collapsible=1;marginBottom=0;whiteSpace=wrap;html=1;" vertex="1" parent="1">
          <mxGeometry x="50" y="350" width="290" height="156" as="geometry" />
        </mxCell>
        <mxCell id="oKFfpTq6lOxdsjf8TjSV-32" value="Task&amp;lt;IEnumerable&amp;lt;Column&amp;gt;&amp;gt; GetAllAsync();" style="text;strokeColor=none;fillColor=none;align=left;verticalAlign=top;spacingLeft=4;spacingRight=4;overflow=hidden;rotatable=0;points=[[0,0.5],[1,0.5]];portConstraint=eastwest;whiteSpace=wrap;html=1;" vertex="1" parent="oKFfpTq6lOxdsjf8TjSV-31">
          <mxGeometry y="26" width="290" height="26" as="geometry" />
        </mxCell>
        <mxCell id="oKFfpTq6lOxdsjf8TjSV-33" value="Task&amp;lt;Column&amp;gt; GetByIdAsync(string id);" style="text;strokeColor=none;fillColor=none;align=left;verticalAlign=top;spacingLeft=4;spacingRight=4;overflow=hidden;rotatable=0;points=[[0,0.5],[1,0.5]];portConstraint=eastwest;whiteSpace=wrap;html=1;" vertex="1" parent="oKFfpTq6lOxdsjf8TjSV-31">
          <mxGeometry y="52" width="290" height="26" as="geometry" />
        </mxCell>
        <mxCell id="oKFfpTq6lOxdsjf8TjSV-34" value="Task CreateAsync(Column column);" style="text;strokeColor=none;fillColor=none;align=left;verticalAlign=top;spacingLeft=4;spacingRight=4;overflow=hidden;rotatable=0;points=[[0,0.5],[1,0.5]];portConstraint=eastwest;whiteSpace=wrap;html=1;" vertex="1" parent="oKFfpTq6lOxdsjf8TjSV-31">
          <mxGeometry y="78" width="290" height="26" as="geometry" />
        </mxCell>
        <mxCell id="oKFfpTq6lOxdsjf8TjSV-35" value="Task UpdateAsync(Column column);" style="text;strokeColor=none;fillColor=none;align=left;verticalAlign=top;spacingLeft=4;spacingRight=4;overflow=hidden;rotatable=0;points=[[0,0.5],[1,0.5]];portConstraint=eastwest;whiteSpace=wrap;html=1;" vertex="1" parent="oKFfpTq6lOxdsjf8TjSV-31">
          <mxGeometry y="104" width="290" height="26" as="geometry" />
        </mxCell>
        <mxCell id="oKFfpTq6lOxdsjf8TjSV-36" value="Task DeleteAsync(string id);" style="text;strokeColor=none;fillColor=none;align=left;verticalAlign=top;spacingLeft=4;spacingRight=4;overflow=hidden;rotatable=0;points=[[0,0.5],[1,0.5]];portConstraint=eastwest;whiteSpace=wrap;html=1;" vertex="1" parent="oKFfpTq6lOxdsjf8TjSV-31">
          <mxGeometry y="130" width="290" height="26" as="geometry" />
        </mxCell>
        <mxCell id="oKFfpTq6lOxdsjf8TjSV-38" value="" style="line;strokeWidth=1;fillColor=none;align=left;verticalAlign=middle;spacingTop=-1;spacingLeft=3;spacingRight=3;rotatable=0;labelPosition=right;points=[];portConstraint=eastwest;strokeColor=inherit;" vertex="1" parent="1">
          <mxGeometry x="568.5" y="270" width="20" height="8" as="geometry" />
        </mxCell>
        <mxCell id="oKFfpTq6lOxdsjf8TjSV-39" value="" style="html=1;verticalAlign=bottom;endArrow=block;curved=0;rounded=0;exitX=1.008;exitY=0.443;exitDx=0;exitDy=0;exitPerimeter=0;" edge="1" parent="1" source="oKFfpTq6lOxdsjf8TjSV-38">
          <mxGeometry width="80" relative="1" as="geometry">
            <mxPoint x="589" y="280" as="sourcePoint" />
            <mxPoint x="589" y="350" as="targetPoint" />
          </mxGeometry>
        </mxCell>
        <mxCell id="oKFfpTq6lOxdsjf8TjSV-40" value="IColumnRepository" style="swimlane;fontStyle=0;childLayout=stackLayout;horizontal=1;startSize=26;fillColor=none;horizontalStack=0;resizeParent=1;resizeParentMax=0;resizeLast=0;collapsible=1;marginBottom=0;whiteSpace=wrap;html=1;" vertex="1" parent="1">
          <mxGeometry x="50" y="350" width="290" height="156" as="geometry" />
        </mxCell>
        <mxCell id="oKFfpTq6lOxdsjf8TjSV-41" value="Task&amp;lt;IEnumerable&amp;lt;Column&amp;gt;&amp;gt; GetAllAsync();" style="text;strokeColor=none;fillColor=none;align=left;verticalAlign=top;spacingLeft=4;spacingRight=4;overflow=hidden;rotatable=0;points=[[0,0.5],[1,0.5]];portConstraint=eastwest;whiteSpace=wrap;html=1;" vertex="1" parent="oKFfpTq6lOxdsjf8TjSV-40">
          <mxGeometry y="26" width="290" height="26" as="geometry" />
        </mxCell>
        <mxCell id="oKFfpTq6lOxdsjf8TjSV-42" value="Task&amp;lt;Column&amp;gt; GetByIdAsync(string id);" style="text;strokeColor=none;fillColor=none;align=left;verticalAlign=top;spacingLeft=4;spacingRight=4;overflow=hidden;rotatable=0;points=[[0,0.5],[1,0.5]];portConstraint=eastwest;whiteSpace=wrap;html=1;" vertex="1" parent="oKFfpTq6lOxdsjf8TjSV-40">
          <mxGeometry y="52" width="290" height="26" as="geometry" />
        </mxCell>
        <mxCell id="oKFfpTq6lOxdsjf8TjSV-43" value="Task CreateAsync(Column column);" style="text;strokeColor=none;fillColor=none;align=left;verticalAlign=top;spacingLeft=4;spacingRight=4;overflow=hidden;rotatable=0;points=[[0,0.5],[1,0.5]];portConstraint=eastwest;whiteSpace=wrap;html=1;" vertex="1" parent="oKFfpTq6lOxdsjf8TjSV-40">
          <mxGeometry y="78" width="290" height="26" as="geometry" />
        </mxCell>
        <mxCell id="oKFfpTq6lOxdsjf8TjSV-44" value="Task UpdateAsync(Column column);" style="text;strokeColor=none;fillColor=none;align=left;verticalAlign=top;spacingLeft=4;spacingRight=4;overflow=hidden;rotatable=0;points=[[0,0.5],[1,0.5]];portConstraint=eastwest;whiteSpace=wrap;html=1;" vertex="1" parent="oKFfpTq6lOxdsjf8TjSV-40">
          <mxGeometry y="104" width="290" height="26" as="geometry" />
        </mxCell>
        <mxCell id="oKFfpTq6lOxdsjf8TjSV-45" value="Task DeleteAsync(string id);" style="text;strokeColor=none;fillColor=none;align=left;verticalAlign=top;spacingLeft=4;spacingRight=4;overflow=hidden;rotatable=0;points=[[0,0.5],[1,0.5]];portConstraint=eastwest;whiteSpace=wrap;html=1;" vertex="1" parent="oKFfpTq6lOxdsjf8TjSV-40">
          <mxGeometry y="130" width="290" height="26" as="geometry" />
        </mxCell>
        <mxCell id="oKFfpTq6lOxdsjf8TjSV-46" value="ITicketRepository" style="swimlane;fontStyle=0;childLayout=stackLayout;horizontal=1;startSize=26;fillColor=none;horizontalStack=0;resizeParent=1;resizeParentMax=0;resizeLast=0;collapsible=1;marginBottom=0;whiteSpace=wrap;html=1;" vertex="1" parent="1">
          <mxGeometry x="360" y="350" width="290" height="158" as="geometry" />
        </mxCell>
        <mxCell id="oKFfpTq6lOxdsjf8TjSV-47" value="Task&amp;lt;IEnumerable&amp;lt; Ticket&amp;gt;&amp;gt; GetAllAsync();" style="text;strokeColor=none;fillColor=none;align=left;verticalAlign=top;spacingLeft=4;spacingRight=4;overflow=hidden;rotatable=0;points=[[0,0.5],[1,0.5]];portConstraint=eastwest;whiteSpace=wrap;html=1;" vertex="1" parent="oKFfpTq6lOxdsjf8TjSV-46">
          <mxGeometry y="26" width="290" height="26" as="geometry" />
        </mxCell>
        <mxCell id="oKFfpTq6lOxdsjf8TjSV-48" value="Task&amp;lt;Ticket&amp;gt; GetByIdAsync(string id);" style="text;strokeColor=none;fillColor=none;align=left;verticalAlign=top;spacingLeft=4;spacingRight=4;overflow=hidden;rotatable=0;points=[[0,0.5],[1,0.5]];portConstraint=eastwest;whiteSpace=wrap;html=1;" vertex="1" parent="oKFfpTq6lOxdsjf8TjSV-46">
          <mxGeometry y="52" width="290" height="28" as="geometry" />
        </mxCell>
        <mxCell id="oKFfpTq6lOxdsjf8TjSV-49" value="Task CreateAsync(Ticket ticket);" style="text;strokeColor=none;fillColor=none;align=left;verticalAlign=top;spacingLeft=4;spacingRight=4;overflow=hidden;rotatable=0;points=[[0,0.5],[1,0.5]];portConstraint=eastwest;whiteSpace=wrap;html=1;" vertex="1" parent="oKFfpTq6lOxdsjf8TjSV-46">
          <mxGeometry y="80" width="290" height="26" as="geometry" />
        </mxCell>
        <mxCell id="oKFfpTq6lOxdsjf8TjSV-50" value="Task UpdateAsync(Ticket ticket);" style="text;strokeColor=none;fillColor=none;align=left;verticalAlign=top;spacingLeft=4;spacingRight=4;overflow=hidden;rotatable=0;points=[[0,0.5],[1,0.5]];portConstraint=eastwest;whiteSpace=wrap;html=1;" vertex="1" parent="oKFfpTq6lOxdsjf8TjSV-46">
          <mxGeometry y="106" width="290" height="26" as="geometry" />
        </mxCell>
        <mxCell id="oKFfpTq6lOxdsjf8TjSV-51" value="Task DeleteAsync(string id);" style="text;strokeColor=none;fillColor=none;align=left;verticalAlign=top;spacingLeft=4;spacingRight=4;overflow=hidden;rotatable=0;points=[[0,0.5],[1,0.5]];portConstraint=eastwest;whiteSpace=wrap;html=1;" vertex="1" parent="oKFfpTq6lOxdsjf8TjSV-46">
          <mxGeometry y="132" width="290" height="26" as="geometry" />
        </mxCell>
        <mxCell id="oKFfpTq6lOxdsjf8TjSV-61" value="" style="html=1;verticalAlign=bottom;endArrow=block;curved=0;rounded=0;" edge="1" parent="1">
          <mxGeometry width="80" relative="1" as="geometry">
            <mxPoint x="350" y="316" as="sourcePoint" />
            <mxPoint x="350" y="540" as="targetPoint" />
          </mxGeometry>
        </mxCell>
        <mxCell id="oKFfpTq6lOxdsjf8TjSV-62" value="IUserRepository" style="swimlane;fontStyle=0;childLayout=stackLayout;horizontal=1;startSize=26;fillColor=none;horizontalStack=0;resizeParent=1;resizeParentMax=0;resizeLast=0;collapsible=1;marginBottom=0;whiteSpace=wrap;html=1;" vertex="1" parent="1">
          <mxGeometry x="210" y="540" width="290" height="156" as="geometry" />
        </mxCell>
        <mxCell id="oKFfpTq6lOxdsjf8TjSV-63" value="Task&amp;lt;IEnumerable&amp;lt;User&amp;gt;&amp;gt; GetAllAsync();" style="text;strokeColor=none;fillColor=none;align=left;verticalAlign=top;spacingLeft=4;spacingRight=4;overflow=hidden;rotatable=0;points=[[0,0.5],[1,0.5]];portConstraint=eastwest;whiteSpace=wrap;html=1;" vertex="1" parent="oKFfpTq6lOxdsjf8TjSV-62">
          <mxGeometry y="26" width="290" height="26" as="geometry" />
        </mxCell>
        <mxCell id="oKFfpTq6lOxdsjf8TjSV-64" value="Task&amp;lt;User&amp;gt; GetByIdAsync(string id);" style="text;strokeColor=none;fillColor=none;align=left;verticalAlign=top;spacingLeft=4;spacingRight=4;overflow=hidden;rotatable=0;points=[[0,0.5],[1,0.5]];portConstraint=eastwest;whiteSpace=wrap;html=1;" vertex="1" parent="oKFfpTq6lOxdsjf8TjSV-62">
          <mxGeometry y="52" width="290" height="26" as="geometry" />
        </mxCell>
        <mxCell id="oKFfpTq6lOxdsjf8TjSV-65" value="Task CreateAsync(User user);" style="text;strokeColor=none;fillColor=none;align=left;verticalAlign=top;spacingLeft=4;spacingRight=4;overflow=hidden;rotatable=0;points=[[0,0.5],[1,0.5]];portConstraint=eastwest;whiteSpace=wrap;html=1;" vertex="1" parent="oKFfpTq6lOxdsjf8TjSV-62">
          <mxGeometry y="78" width="290" height="26" as="geometry" />
        </mxCell>
        <mxCell id="oKFfpTq6lOxdsjf8TjSV-66" value="Task UpdateAsync(USer user);" style="text;strokeColor=none;fillColor=none;align=left;verticalAlign=top;spacingLeft=4;spacingRight=4;overflow=hidden;rotatable=0;points=[[0,0.5],[1,0.5]];portConstraint=eastwest;whiteSpace=wrap;html=1;" vertex="1" parent="oKFfpTq6lOxdsjf8TjSV-62">
          <mxGeometry y="104" width="290" height="26" as="geometry" />
        </mxCell>
        <mxCell id="oKFfpTq6lOxdsjf8TjSV-67" value="Task DeleteAsync(string id);" style="text;strokeColor=none;fillColor=none;align=left;verticalAlign=top;spacingLeft=4;spacingRight=4;overflow=hidden;rotatable=0;points=[[0,0.5],[1,0.5]];portConstraint=eastwest;whiteSpace=wrap;html=1;" vertex="1" parent="oKFfpTq6lOxdsjf8TjSV-62">
          <mxGeometry y="130" width="290" height="26" as="geometry" />
        </mxCell>
      </root>
    </mxGraphModel>
  </diagram>
</mxfile>
